# xmcd
#
# Track frame offsets: 
#        150
#        3627
#        21904
#        38812
#        58809
#        78968
#        97667
#        118845
#        138422
#        160697
#        184904
#        207052
#        227987
#        247566
#        265922
#        283410
#        308380
#        325898
#
# Disc length: 4610 seconds
#
# Revision: 0
# Processed by: cddbd v1.5.2PL0 Copyright (c) Steve Scherf et al.
# Submitted via: ExactAudioCopyFreeDBPlugin 1.0
#
DISCID=ec120012
DTITLE=L'1Solence - Si L'1Solence l'autre aussi...
DYEAR=2008
DGENRE=Hip-Hop
TTITLE0=L'1tro
TTITLE1=Dans mon crâne
TTITLE2=Couleur rage
TTITLE3=Si L'1Solence l'autre aussi..
TTITLE4=Pas de clash à l'amiable feat. 
TTITLE5=La loi du stylo
TTITLE6=Chance
TTITLE7=Back To The Street
TTITLE8=Pas de comparaisons
TTITLE9=Casting de luxe
TTITLE10=Rimes perdues feat. Gees
TTITLE11=Ca recommence feat. Seth Gueko 
TTITLE12=Multifacette
TTITLE13=Jamais laché l'affaire feat. Naz-K
TTITLE14=Meyrina feat. V.K
TTITLE15=All I Need Is One Mic
TTITLE16=Outro
TTITLE17=Bonus track
EXTD=
EXTT0=
EXTT1=
EXTT2=
EXTT3=
EXTT4=
EXTT5=
EXTT6=
EXTT7=
EXTT8=
EXTT9=
EXTT10=
EXTT11=
EXTT12=
EXTT13=
EXTT14=
EXTT15=
EXTT16=
EXTT17=
PLAYORDER=
